<svg width="438" height="438" viewBox="0 0 438 438" fill="none" xmlns="http://www.w3.org/2000/svg">
<g filter="url(#filter0_d_2164_3981)">
<path fill-rule="evenodd" clip-rule="evenodd" d="M278.5 158.8C228.684 158.8 188.3 199.184 188.3 249C188.3 298.816 228.684 339.2 278.5 339.2C328.316 339.2 368.7 298.816 368.7 249C368.7 199.184 328.316 158.8 278.5 158.8ZM200.3 249C200.3 205.811 235.311 170.8 278.5 170.8C321.689 170.8 356.7 205.811 356.7 249C356.7 292.189 321.689 327.2 278.5 327.2C235.311 327.2 200.3 292.189 200.3 249Z" fill="url(#paint0_linear_2164_3981)"/>
<path fill-rule="evenodd" clip-rule="evenodd" d="M86 109C86 90.2223 101.222 75 120 75H301C319.778 75 335 90.2223 335 109C335 118.2 331.346 126.547 325.409 132.668C371.427 151.242 403.9 196.329 403.9 249C403.9 318.256 347.757 374.4 278.5 374.4C231.796 374.4 191.055 348.868 169.474 311H94C75.2223 311 60 295.778 60 277C60 258.528 74.731 243.496 93.0864 243.012C88.0431 237.081 85 229.396 85 221C85 212.61 88.0389 204.93 93.0761 199H66C47.2223 199 32 183.778 32 165C32 146.222 47.2223 131 66 131H94.0761C89.0389 125.07 86 117.39 86 109ZM323 109C323 117.176 318.54 124.31 311.921 128.103C301.28 125.168 290.073 123.6 278.5 123.6C263.566 123.6 249.242 126.21 235.959 131H120C107.85 131 98 121.15 98 109C98 96.8497 107.85 87 120 87H301C313.15 87 323 96.8497 323 109ZM211.469 143C194.125 153.991 179.664 169.12 169.474 187H66C53.8497 187 44 177.15 44 165C44 152.85 53.8497 143 66 143H211.469ZM119 199H163.465C157.552 212.585 153.975 227.42 153.241 243H119C106.85 243 97 233.15 97 221C97 208.85 106.85 199 119 199ZM153.241 255C153.975 270.58 157.552 285.415 163.465 299H94C81.8497 299 72 289.15 72 277C72 264.85 81.8497 255 94 255H153.241ZM278.5 135.6C215.871 135.6 165.1 186.371 165.1 249C165.1 311.629 215.871 362.4 278.5 362.4C341.129 362.4 391.9 311.629 391.9 249C391.9 186.371 341.129 135.6 278.5 135.6Z" fill="url(#paint1_linear_2164_3981)"/>
</g>
<defs>
<filter id="filter0_d_2164_3981" x="0" y="0" width="438" height="438" filterUnits="userSpaceOnUse" color-interpolation-filters="sRGB">
<feFlood flood-opacity="0" result="BackgroundImageFix"/>
<feColorMatrix in="SourceAlpha" type="matrix" values="0 0 0 0 0 0 0 0 0 0 0 0 0 0 0 0 0 0 127 0" result="hardAlpha"/>
<feOffset dy="4"/>
<feGaussianBlur stdDeviation="2"/>
<feComposite in2="hardAlpha" operator="out"/>
<feColorMatrix type="matrix" values="0 0 0 0 0 0 0 0 0 0 0 0 0 0 0 0 0 0 0.25 0"/>
<feBlend mode="normal" in2="BackgroundImageFix" result="effect1_dropShadow_2164_3981"/>
<feBlend mode="normal" in="SourceGraphic" in2="effect1_dropShadow_2164_3981" result="shape"/>
</filter>
<linearGradient id="paint0_linear_2164_3981" x1="129.172" y1="129.18" x2="253.415" y2="353.001" gradientUnits="userSpaceOnUse">
<stop stop-color="#CA5EEE"/>
<stop offset="1" stop-color="#4BE1EC"/>
</linearGradient>
<linearGradient id="paint1_linear_2164_3981" x1="129.172" y1="129.18" x2="253.415" y2="353.001" gradientUnits="userSpaceOnUse">
<stop stop-color="#CA5EEE"/>
<stop offset="1" stop-color="#4BE1EC"/>
</linearGradient>
</defs>
</svg>
